<svg width="32" height="26" viewBox="0 0 32 26" fill="none" xmlns="http://www.w3.org/2000/svg">
<path d="M0.594971 1.46973H9.65707C9.65707 1.46973 14.5916 1.47169 14.5916 6.77698C14.5916 12.0823 9.65707 12.286 9.65707 12.286H2.36467" stroke="#302E2E" stroke-width="1.99999"/>
<path d="M0.594971 23.415H9.65708C9.65708 23.415 14.5916 23.413 14.5916 17.9567C14.5916 12.5005 9.65708 12.2909 9.65708 12.2909H2.36467" stroke="#302E2E" stroke-width="1.99999"/>
<path d="M20.7367 16.7418H30.415C30.6354 14.5101 29.4047 10.2217 24.7092 10.2217C19.5775 10.2217 18.1116 13.9744 18.1072 16.7418C18.1023 19.8112 19.4845 24.0819 24.7092 24.0819C28.889 24.0819 30.415 20.8674 30.415 19.3979" stroke="#302E2E" stroke-width="1.99999"/>
<line x1="1.59497" y1="0.642578" x2="1.59497" y2="24.0808" stroke="#302E2E" stroke-width="1.99999"/>
<line x1="19.1766" y1="4.62793" x2="29.3738" y2="4.62793" stroke="#302E2E" stroke-width="1.99999"/>
</svg>
