<svg width="27" height="27" viewBox="0 0 27 27" fill="none" xmlns="http://www.w3.org/2000/svg">
<path d="M19.584 1.8418H7.45247C4.10245 1.8418 1.38672 4.55752 1.38672 7.90754V20.039C1.38672 23.389 4.10245 26.1048 7.45247 26.1048H19.584C22.934 26.1048 25.6497 23.389 25.6497 20.039V7.90754C25.6497 4.55752 22.934 1.8418 19.584 1.8418Z" stroke="#302E2E" stroke-width="1.73307" stroke-linecap="round" stroke-linejoin="round"/>
<path d="M18.3793 13.2082C18.529 14.2178 18.3566 15.249 17.8865 16.1549C17.4164 17.0609 16.6726 17.7956 15.7609 18.2545C14.8491 18.7134 13.816 18.8731 12.8082 18.7109C11.8005 18.5488 10.8696 18.073 10.1479 17.3513C9.42613 16.6296 8.95035 15.6986 8.7882 14.6909C8.62604 13.6832 8.78577 12.65 9.24466 11.7383C9.70354 10.8266 10.4382 10.0828 11.3442 9.61271C12.2502 9.14261 13.2813 8.97016 14.291 9.11988C15.3208 9.27259 16.2743 9.75249 17.0105 10.4887C17.7467 11.2249 18.2266 12.1783 18.3793 13.2082Z" stroke="#302E2E" stroke-width="1.73307" stroke-linecap="round" stroke-linejoin="round"/>
<path d="M20.1992 7.30273H20.2105" stroke="#FAFAFA" stroke-width="1.73307" stroke-linecap="round" stroke-linejoin="round"/>
</svg>
